<?xml version="1.0" encoding="UTF-8"?> <svg xmlns="http://www.w3.org/2000/svg" xmlns:xlink="http://www.w3.org/1999/xlink" version="1.1" width="512" height="512" x="0" y="0" viewBox="0 0 512 512" style="enable-background:new 0 0 512 512" xml:space="preserve"><g><path d="M332 220c0 22.091-17.909 40-40 40H140c-22.091 0-40 17.909-40 40v-80c0-22.091 17.909-40 40-40h152c22.091 0 40 17.909 40 40zM180 372c0 22.091 17.909 40 40 40h152c22.091 0 40 17.909 40 40v-80c0-22.091-17.909-40-40-40H220c-22.091 0-40 17.909-40 40z" style="stroke-width:40;stroke-linecap:round;stroke-linejoin:round;stroke-miterlimit:10;" fill="none" stroke="#023248" stroke-width="40" stroke-linecap="round" stroke-linejoin="round" stroke-miterlimit="10" data-original="#000000" opacity="1"></path><path d="M492 452c0 22.091-17.909 40-40 40H60c-22.091 0-40-17.909-40-40V60c0-22.091 17.909-40 40-40h392c22.091 0 40 17.909 40 40v392zM20 100h472M189.179 20v80" style="stroke-width:40;stroke-linecap:round;stroke-linejoin:round;stroke-miterlimit:10;" fill="none" stroke="#023248" stroke-width="40" stroke-linecap="round" stroke-linejoin="round" stroke-miterlimit="10" data-original="#000000" opacity="1"></path></g></svg> 